<?xml version="1.0" encoding="utf-8"?>
<!-- Generator: Adobe Illustrator 23.0.6, SVG Export Plug-In . SVG Version: 6.00 Build 0)  -->
<svg version="1.1" id="Gradient" xmlns="http://www.w3.org/2000/svg" xmlns:xlink="http://www.w3.org/1999/xlink" x="0px" y="0px"
	 viewBox="0 0 512 512" style="enable-background:new 0 0 512 512;" xml:space="preserve">
<style type="text/css">
	.st0{fill:url(#SVGID_1_);}
</style>
<linearGradient id="SVGID_1_" gradientUnits="userSpaceOnUse" x1="256" y1="1182" x2="256" y2="702" gradientTransform="matrix(1 0 0 1 0 -686)">
	<stop  offset="0" style="stop-color:#9C1F14"/>
	<stop  offset="1" style="stop-color:#4D1506"/>
</linearGradient>
<path class="st0" d="M456,48h-48v-8c0-13.3-10.7-24-24-24s-24,10.7-24,24v8h-80v-8c0-13.3-10.7-24-24-24c-13.3,0-24,10.7-24,24v8
	h-80v-8c0-13.3-10.7-24-24-24s-24,10.7-24,24v8H56c-22.1,0-40,17.9-40,40v368c0,22.1,17.9,40,40,40h400c22.1,0,40-17.9,40-40V88
	C496,65.9,478.1,48,456,48z M376,40c0-4.4,3.6-8,8-8s8,3.6,8,8v48c0,4.4-3.6,8-8,8s-8-3.6-8-8V40z M248,40c0-4.4,3.6-8,8-8
	s8,3.6,8,8v48c0,4.4-3.6,8-8,8s-8-3.6-8-8V40z M120,40c0-4.4,3.6-8,8-8c4.4,0,8,3.6,8,8v48c0,4.4-3.6,8-8,8c-4.4,0-8-3.6-8-8V40z
	 M56,64h48v24c0,13.3,10.7,24,24,24s24-10.7,24-24V64h80v24c0,13.3,10.7,24,24,24c13.3,0,24-10.7,24-24V64h80v24
	c0,13.3,10.7,24,24,24s24-10.7,24-24V64h48c13.2,0,24,10.8,24,24v56H32V88C32,74.8,42.8,64,56,64z M456,480H56
	c-13.2,0-24-10.8-24-24V160h448v296C480,469.2,469.2,480,456,480z M440,216h-32c-4.4,0-8,3.6-8,8v32c0,4.4,3.6,8,8,8h32
	c4.4,0,8-3.6,8-8v-32C448,219.6,444.4,216,440,216z M432,248h-16v-16h16V248z M280,376h-32c-4.4,0-8,3.6-8,8v32c0,4.4,3.6,8,8,8h32
	c4.4,0,8-3.6,8-8v-32C288,379.6,284.4,376,280,376z M272,408h-16v-16h16V408z M200,216h-32c-4.4,0-8,3.6-8,8v32c0,4.4,3.6,8,8,8h32
	c4.4,0,8-3.6,8-8v-32C208,219.6,204.4,216,200,216z M192,248h-16v-16h16V248z M120,296H88c-4.4,0-8,3.6-8,8v32c0,4.4,3.6,8,8,8h32
	c4.4,0,8-3.6,8-8v-32C128,299.6,124.4,296,120,296z M112,328H96v-16h16V328z M200,296h-32c-4.4,0-8,3.6-8,8v32c0,4.4,3.6,8,8,8h32
	c4.4,0,8-3.6,8-8v-32C208,299.6,204.4,296,200,296z M192,328h-16v-16h16V328z M120,376H88c-4.4,0-8,3.6-8,8v32c0,4.4,3.6,8,8,8h32
	c4.4,0,8-3.6,8-8v-32C128,379.6,124.4,376,120,376z M112,408H96v-16h16V408z M200,376h-32c-4.4,0-8,3.6-8,8v32c0,4.4,3.6,8,8,8h32
	c4.4,0,8-3.6,8-8v-32C208,379.6,204.4,376,200,376z M192,408h-16v-16h16V408z M440,296h-32c-4.4,0-8,3.6-8,8v32c0,4.4,3.6,8,8,8h32
	c4.4,0,8-3.6,8-8v-32C448,299.6,444.4,296,440,296z M432,328h-16v-16h16V328z M440,376h-32c-4.4,0-8,3.6-8,8v32c0,4.4,3.6,8,8,8h32
	c4.4,0,8-3.6,8-8v-32C448,379.6,444.4,376,440,376z M432,408h-16v-16h16V408z M360,376h-32c-4.4,0-8,3.6-8,8v32c0,4.4,3.6,8,8,8h32
	c4.4,0,8-3.6,8-8v-32C368,379.6,364.4,376,360,376z M352,408h-16v-16h16V408z M280,216h-32c-4.4,0-8,3.6-8,8v32c0,4.4,3.6,8,8,8h32
	c4.4,0,8-3.6,8-8v-32C288,219.6,284.4,216,280,216z M272,248h-16v-16h16V248z M280,296h-32c-4.4,0-8,3.6-8,8v32c0,4.4,3.6,8,8,8h32
	c4.4,0,8-3.6,8-8v-32C288,299.6,284.4,296,280,296z M272,328h-16v-16h16V328z M360,216h-32c-4.4,0-8,3.6-8,8v32c0,4.4,3.6,8,8,8h32
	c4.4,0,8-3.6,8-8v-32C368,219.6,364.4,216,360,216z M352,248h-16v-16h16V248z M360,296h-32c-4.4,0-8,3.6-8,8v32c0,4.4,3.6,8,8,8h32
	c4.4,0,8-3.6,8-8v-32C368,299.6,364.4,296,360,296z M352,328h-16v-16h16V328z"/>
</svg>
