<?xml version="1.0" encoding="utf-8"?>
<!-- Generator: Adobe Illustrator 23.0.6, SVG Export Plug-In . SVG Version: 6.00 Build 0)  -->
<svg version="1.1" id="Capa_1" xmlns="http://www.w3.org/2000/svg" xmlns:xlink="http://www.w3.org/1999/xlink" x="0px" y="0px"
	 viewBox="0 0 512 512" style="enable-background:new 0 0 512 512;" xml:space="preserve">
<style type="text/css">
	.st0{fill:#9C1E13;}
	.st1{fill:#FFFFFF;}
	.st2{fill:#E28086;}
	.st3{fill:#DD636E;}
	.st4{fill:#F0F7FF;}
</style>
<g>
	<g>
		<g>
			<g>
				<g>
					<g>
						<g>
							<g>
								<g>
									<g>
										<path class="st0" d="M409.7,331.9V121c0-26.2-21.2-47.4-47.4-47.4H47.4C21.2,73.5,0,94.8,0,121v210.9
											c0,26.2,21.2,47.4,47.4,47.4h20c6.1,0,11.8,3.3,14.9,8.6l32,55.2h59l32-55.2c3.1-5.3,8.8-8.6,14.9-8.6h142.1
											C388.5,379.3,409.7,358.1,409.7,331.9L409.7,331.9z"/>
										<g>
											<path class="st0" d="M422.5,73.5h-65.2c26.2,0,47.4,21.2,47.4,47.4v210.9c0,26.2-21.2,47.4-47.4,47.4h65.2
												c26.2,0,47.4-21.2,47.4-47.4V121C470,94.8,448.7,73.5,422.5,73.5L422.5,73.5z"/>
											<path class="st0" d="M146.3,387.9l-32,55.2l20.7,35.7c5.3,9.2,18.5,9.2,23.9,0l52.6-90.9c3.1-5.3,8.8-8.6,14.9-8.6h-65.2
												C155,379.3,149.3,382.6,146.3,387.9L146.3,387.9z"/>
										</g>
									</g>
								</g>
							</g>
						</g>
					</g>
					<g>
						<g>
							<path class="st1" d="M407,305H55.6c-4.3,0-7.7-3.5-7.7-7.7s3.5-7.7,7.7-7.7H407c4.3,0,7.7,3.5,7.7,7.7S411.2,305,407,305z"/>
						</g>
						<g>
							<path class="st1" d="M269.4,233H55.6c-4.3,0-7.7-3.5-7.7-7.7c0-4.3,3.5-7.7,7.7-7.7h213.8c4.3,0,7.7,3.5,7.7,7.7
								C277.1,229.6,273.7,233,269.4,233z"/>
						</g>
						<g>
							<path class="st1" d="M269.4,161.1H55.6c-4.3,0-7.7-3.5-7.7-7.7s3.5-7.7,7.7-7.7h213.8c4.3,0,7.7,3.5,7.7,7.7
								S273.7,161.1,269.4,161.1z"/>
						</g>
					</g>
				</g>
			</g>
		</g>
	</g>
	<g>
		<g>
			<g>
				<g>
					<g>
						<g>
							<g>
								<g>
									<path class="st2" d="M452.1,138.4c0-49.4-36.2-90.4-83.5-97.9l-5.9,1.8c-26,17.2-43,46.6-43,80.1c0,51.6,40.7,93.7,91.7,96
										C436.1,200.5,452.1,171.4,452.1,138.4z"/>
									<path class="st3" d="M415.8,26.4c-19.7,0-37.9,5.9-53.2,16c48.2,5.2,85.6,46,85.6,95.6c0,33.4-17.1,62.9-43,80.1
										c3.5,0.4,7,0.6,10.5,0.6c53.1,0,96.2-43,96.2-96.2S469,26.4,415.8,26.4L415.8,26.4z"/>
								</g>
							</g>
						</g>
					</g>
				</g>
			</g>
		</g>
		<g>
			<g>
				<g>
					<g>
						<path class="st4" d="M417.9,181.3c-4.3,0-7.7-3.5-7.7-7.7V79.1H396c-4.3,0-7.7-3.5-7.7-7.7c0-4.3,3.5-7.7,7.7-7.7h21.8
							c4.3,0,7.7,3.5,7.7,7.7v102.2C425.6,177.9,422.1,181.3,417.9,181.3z"/>
					</g>
				</g>
			</g>
		</g>
	</g>
</g>
<g id="_x31_dcE1u.tif">
	
		<image style="overflow:visible;" width="460" height="458" id="Layer_0_1_" xlink:href="791C4F9AC7AD5A8B.png"  transform="matrix(0.5 0 0 0.5 -289 161.116)">
	</image>
</g>
</svg>
